<?xml version="1.0" encoding="utf-8"?>
<!-- Generator: Adobe Illustrator 25.3.1, SVG Export Plug-In . SVG Version: 6.00 Build 0)  -->
<svg version="1.1" id="svganimejs" xmlns="http://www.w3.org/2000/svg" xmlns:xlink="http://www.w3.org/1999/xlink" x="0px" y="0px"
	 viewBox="0 0 147.9 147.9" enable-background="new 0 0 147.9 147.9" xml:space="preserve">
<g id="groupegrandcercle" class="groupegrandcercle">
	<defs>
		<path id="masquegrandcercle" d="M142.2,45.6l-4.2,1.7c3.4,8.2,5.3,17.2,5.3,26.6h4.5C147.9,63.9,145.9,54.3,142.2,45.6z
			 M102.2,5.6l-1.7,4.2c8.5,3.5,16.1,8.7,22.5,15.1l3.2-3.2C119.4,14.8,111.3,9.3,102.2,5.6z M21.6,21.6c-6.8,6.8-12.3,14.9-16,24
			l4.2,1.7c3.5-8.5,8.7-16.1,15.1-22.5L21.6,21.6z M24.8,123l-3.2,3.2c6.8,6.8,14.9,12.3,24,16l1.7-4.2
			C38.9,134.6,31.2,129.4,24.8,123z M138.1,100.5c-3.5,8.5-8.7,16.1-15.1,22.5l3.2,3.2c6.8-6.8,12.3-14.9,16-24L138.1,100.5z
			 M73.9,143.4v4.5c10,0,19.6-2,28.3-5.6l-1.7-4.2C92.3,141.5,83.3,143.4,73.9,143.4z M4.5,73.9H0c0,10,2,19.6,5.6,28.3l4.2-1.7
			C6.4,92.3,4.5,83.3,4.5,73.9z M45.6,5.6l1.7,4.2c8.2-3.4,17.2-5.3,26.6-5.3V0C63.9,0,54.3,2,45.6,5.6z"/>
	</defs>
	<clipPath id="masquegrandcercle_1_">
		<use xlink:href="#masquegrandcercle"  overflow="visible"/>
	</clipPath>
	<linearGradient id="grandcercle_1_" gradientUnits="userSpaceOnUse" x1="-3.5381" y1="73.93" x2="151.3981" y2="73.93">
		<stop  offset="1.385225e-07" style="stop-color:#E83D6C"/>
		<stop  offset="1" style="stop-color:#EBE300"/>
	</linearGradient>
	<circle id="grandcercle" clip-path="url(#masquegrandcercle_1_)" fill="url(#grandcercle_1_)" cx="73.9" cy="73.9" r="77.5"/>
</g>
<g id="groupemoyencercle">
	<defs>
		<path id="masquemoyencercle" d="M116,116c-5.5,5.5-12,9.9-19.3,12.9c-7,2.9-14.7,4.5-22.8,4.5v3.9c8.6,0,16.8-1.7,24.2-4.8
			c7.7-3.2,14.7-7.9,20.5-13.7L116,116z M132.4,49.7c-3.2-7.7-7.9-14.7-13.7-20.5l-2.7,2.7c5.5,5.5,9.9,12,12.9,19.3
			c2.9,7,4.5,14.7,4.5,22.8h3.9C137.2,65.3,135.5,57.2,132.4,49.7z M49.7,15.4C42,18.6,35,23.3,29.2,29.2l2.7,2.7
			c5.5-5.5,12-9.9,19.3-12.9c7-2.9,14.7-4.5,22.8-4.5v-3.9C65.3,10.6,57.2,12.3,49.7,15.4z M19,96.7c-2.9-7-4.5-14.7-4.5-22.8h-3.9
			c0,8.6,1.7,16.8,4.8,24.2c3.2,7.7,7.9,14.7,13.7,20.5l2.7-2.7C26.4,110.5,22,104,19,96.7z"/>
	</defs>
	<clipPath id="masquemoyencercle_1_">
		<use xlink:href="#masquemoyencercle"  overflow="visible"/>
	</clipPath>
	<linearGradient id="moyencercle_1_" gradientUnits="userSpaceOnUse" x1="-3.5381" y1="73.93" x2="151.3981" y2="73.93">
		<stop  offset="1.385225e-07" style="stop-color:#E83D6C"/>
		<stop  offset="1" style="stop-color:#EBE300"/>
	</linearGradient>
	<circle id="moyencercle" clip-path="url(#masquemoyencercle_1_)" fill="url(#moyencercle_1_)" cx="73.9" cy="73.9" r="77.5"/>
</g>
<g id="groupepetitcercle">
	<defs>
		<path id="masquepetitcercle" d="M123,53.6c-2.7-6.5-6.6-12.3-11.5-17.2c-4.9-4.9-10.7-8.8-17.2-11.5c-6.3-2.6-13.1-4-20.3-4v3.2
			c6.8,0,13.2,1.3,19.1,3.8c6.1,2.5,11.6,6.2,16.2,10.8c4.6,4.6,8.3,10.1,10.8,16.2c2.5,5.9,3.8,12.3,3.8,19.1h3.2
			C127,66.7,125.6,59.9,123,53.6z M54.8,120c-6.1-2.5-11.6-6.2-16.2-10.8c-4.6-4.6-8.3-10.1-10.8-16.2c-2.5-5.9-3.8-12.3-3.8-19.1
			h-3.2c0,7.2,1.4,14.1,4,20.3c2.7,6.5,6.6,12.3,11.5,17.2c4.9,4.9,10.7,8.8,17.2,11.5c6.3,2.6,13.1,4,20.3,4v-3.2
			C67.2,123.8,60.7,122.4,54.8,120z"/>
	</defs>
	<clipPath id="masquepetitcercle_1_">
		<use xlink:href="#masquepetitcercle"  overflow="visible"/>
	</clipPath>
	<linearGradient id="petitcercle_1_" gradientUnits="userSpaceOnUse" x1="-3.5381" y1="73.93" x2="151.3981" y2="73.93">
		<stop  offset="1.385225e-07" style="stop-color:#E83D6C"/>
		<stop  offset="1" style="stop-color:#EBE300"/>
	</linearGradient>
	<circle id="petitcercle" clip-path="url(#masquepetitcercle_1_)" fill="url(#petitcercle_1_)" cx="73.9" cy="73.9" r="77.5"/>
</g>
<g id="groupeovale5">
	<defs>
		<path id="masqueovale5" d="M91.9,72.4c0,2.5-0.2,4.8-0.5,7c-0.4,3-1.1,5.7-2,7.8c-0.5,1.1-1,2.1-1.5,2.9c0,0,0,0,0,0
			c-0.5,0.7-1,1.3-1.5,1.8c-1,0.9-2,1.5-3.1,1.5h0c-1.1,0-2.1-0.5-3.1-1.4c-3.3-3-5.6-10.7-5.6-19.7c0-9,2.3-16.7,5.6-19.7
			c1-0.9,2-1.4,3.1-1.4h0c1.1,0,2.2,0.5,3.1,1.5c0.5,0.5,1,1.1,1.5,1.8c0,0,0,0,0,0c0.5,0.8,1,1.8,1.5,2.9c0.9,2.2,1.6,4.9,2,7.8
			C91.7,67.6,91.9,70,91.9,72.4z"/>
	</defs>
	<clipPath id="masqueovale5_1_">
		<use xlink:href="#masqueovale5"  overflow="visible"/>
	</clipPath>
	<linearGradient id="ovale5_1_" gradientUnits="userSpaceOnUse" x1="-41.6658" y1="72.4462" x2="113.2704" y2="72.4462">
		<stop  offset="1.385225e-07" style="stop-color:#E83D6C"/>
		<stop  offset="1" style="stop-color:#EBE300"/>
	</linearGradient>
	<circle id="ovale5" clip-path="url(#masqueovale5_1_)" fill="url(#ovale5_1_)" cx="35.8" cy="72.4" r="77.5"/>
</g>
<g id="groupeovale4">
	<defs>
		<path id="masqueovale4" d="M90.3,72.4c0,2.2-0.1,4.3-0.3,6.4c-0.2,2.8-0.7,5.4-1.2,7.9c-0.3,1.2-0.6,2.4-0.9,3.5c0,0,0,0,0,0
			c-0.8,2.7-1.9,5.1-3.1,7v0c-0.2,0.3-0.4,0.6-0.6,0.9c-1.8,2.6-3.9,4-6.1,4c-1.2,0-2.4-0.4-3.5-1.3c-2.2-1.6-4.1-4.7-5.6-8.7
			c-0.4-1.1-0.8-2.3-1.1-3.5c-0.7-2.4-1.2-5.1-1.5-8c-0.2-1.5-0.3-3-0.4-4.6c-0.1-1.2-0.1-2.3-0.1-3.5s0-2.4,0.1-3.5
			c0.1-1.6,0.2-3.1,0.4-4.6c0.3-2.9,0.8-5.5,1.5-8c0.3-1.2,0.7-2.4,1.1-3.5c1.5-4.1,3.4-7.1,5.6-8.7c1.1-0.8,2.3-1.3,3.5-1.3
			c2.2,0,4.3,1.5,6.1,4c0.2,0.3,0.4,0.6,0.6,0.9v0c1.2,1.9,2.2,4.3,3.1,7c0,0,0,0,0,0c0.3,1.1,0.6,2.3,0.9,3.5
			c0.5,2.4,1,5.1,1.2,7.8C90.2,68.1,90.3,70.2,90.3,72.4z"/>
	</defs>
	<clipPath id="masqueovale4_1_">
		<use xlink:href="#masqueovale4"  overflow="visible"/>
	</clipPath>
	<linearGradient id="ovale4_1_" gradientUnits="userSpaceOnUse" x1="-25.9264" y1="72.4462" x2="129.0098" y2="72.4462">
		<stop  offset="1.385225e-07" style="stop-color:#E83D6C"/>
		<stop  offset="1" style="stop-color:#EBE300"/>
	</linearGradient>
	<circle id="ovale4" clip-path="url(#masqueovale4_1_)" fill="url(#ovale4_1_)" cx="51.5" cy="72.4" r="77.5"/>
</g>
<g id="groupeovale3">
	<defs>
		<path id="masqueovale3" d="M88.3,72.4c0,2-0.1,4-0.2,5.8c-0.2,2.6-0.5,5-0.9,7.4c-0.4,2.2-0.8,4.4-1.4,6.3
			c-0.5,1.8-1.1,3.4-1.7,4.9c-0.2,0.4-0.3,0.8-0.5,1.1c-2.5,5.7-5.9,9.2-9.7,9.2s-7.1-3.5-9.7-9.2c-0.2-0.4-0.3-0.7-0.5-1.1
			c-0.6-1.5-1.2-3.2-1.7-4.9c-0.6-2-1-4.1-1.4-6.3c-0.4-2.4-0.7-4.8-0.9-7.4c-0.1-1.9-0.2-3.9-0.2-5.8s0.1-4,0.2-5.9
			c0.2-2.6,0.5-5,0.9-7.4c0.4-2.2,0.8-4.4,1.4-6.3c0.5-1.8,1.1-3.4,1.7-4.9c0.2-0.4,0.3-0.8,0.5-1.1c2.5-5.7,5.9-9.1,9.7-9.1
			s7.1,3.5,9.7,9.1c0.2,0.4,0.3,0.7,0.5,1.1c0.6,1.5,1.2,3.2,1.7,4.9c0.6,2,1,4.1,1.4,6.3c0.4,2.3,0.7,4.8,0.9,7.4
			C88.2,68.5,88.3,70.5,88.3,72.4z"/>
	</defs>
	<clipPath id="masqueovale3_1_">
		<use xlink:href="#masqueovale3"  overflow="visible"/>
	</clipPath>
	<linearGradient id="ovale3_1_" gradientUnits="userSpaceOnUse" x1="-3.5381" y1="72.4462" x2="151.3981" y2="72.4462">
		<stop  offset="1.385225e-07" style="stop-color:#E83D6C"/>
		<stop  offset="1" style="stop-color:#EBE300"/>
	</linearGradient>
	<circle id="ovale3" clip-path="url(#masqueovale3_1_)" fill="url(#ovale3_1_)" cx="73.9" cy="72.4" r="77.5"/>
</g>
<g id="groupeovale2">
	<defs>
		<path id="masqueovale2" d="M82.1,72.4c0,1.2,0,2.4-0.1,3.5c-0.1,1.6-0.2,3.1-0.4,4.6c-0.3,2.9-0.8,5.5-1.5,8
			c-0.3,1.2-0.7,2.4-1.1,3.5c-1.5,4-3.4,7.1-5.6,8.7c-1.1,0.8-2.3,1.3-3.5,1.3c-2.2,0-4.3-1.5-6.1-4c-0.2-0.3-0.4-0.6-0.6-0.9v0
			c-1.2-1.9-2.2-4.3-3.1-7c0,0,0,0,0,0c-0.3-1.1-0.6-2.3-0.9-3.5c-0.5-2.4-1-5.1-1.2-7.9c-0.2-2.1-0.3-4.2-0.3-6.4s0.1-4.3,0.3-6.4
			c0.2-2.8,0.7-5.4,1.2-7.8c0.3-1.2,0.6-2.4,0.9-3.5c0,0,0,0,0,0c0.8-2.7,1.9-5.1,3.1-7v0c0.2-0.3,0.4-0.6,0.6-0.9
			c1.8-2.5,3.9-4,6.1-4c1.2,0,2.4,0.4,3.5,1.3c2.2,1.6,4.1,4.7,5.6,8.7c0.4,1.1,0.8,2.3,1.1,3.5c0.7,2.4,1.2,5.1,1.5,8
			c0.2,1.5,0.3,3,0.4,4.6C82.1,70.1,82.1,71.2,82.1,72.4z"/>
	</defs>
	<clipPath id="masqueovale2_1_">
		<use xlink:href="#masqueovale2"  overflow="visible"/>
	</clipPath>
	<linearGradient id="ovale2_1_" gradientUnits="userSpaceOnUse" x1="18.9621" y1="72.4462" x2="173.8983" y2="72.4462">
		<stop  offset="1.385225e-07" style="stop-color:#E83D6C"/>
		<stop  offset="1" style="stop-color:#EBE300"/>
	</linearGradient>
	<circle id="ovale2" clip-path="url(#masqueovale2_1_)" fill="url(#ovale2_1_)" cx="96.4" cy="72.4" r="77.5"/>
</g>
<g id="groupeovale1">
	<defs>
		<path id="masqueovale1" d="M73.9,72.4c0,9-2.3,16.6-5.6,19.7c-1,0.9-2,1.4-3.1,1.4h0c-1.1,0-2.2-0.5-3.1-1.5
			c-0.5-0.5-1-1.1-1.5-1.8c0,0,0,0,0,0c-0.5-0.8-1-1.8-1.5-2.9c-0.9-2.2-1.6-4.9-2-7.8c-0.3-2.2-0.5-4.5-0.5-7s0.2-4.8,0.5-7
			c0.4-3,1.1-5.7,2-7.8c0.5-1.1,1-2.1,1.5-2.9c0,0,0,0,0,0c0.5-0.7,1-1.3,1.5-1.8c1-0.9,2-1.5,3.1-1.5h0c1.1,0,2.1,0.5,3.1,1.4
			C71.6,55.8,73.9,63.5,73.9,72.4z"/>
	</defs>
	<clipPath id="masqueovale1_1_">
		<use xlink:href="#masqueovale1"  overflow="visible"/>
	</clipPath>
	<linearGradient id="ovale1_1_" gradientUnits="userSpaceOnUse" x1="35.2119" y1="72.4462" x2="190.1481" y2="72.4462">
		<stop  offset="1.385225e-07" style="stop-color:#E83D6C"/>
		<stop  offset="1" style="stop-color:#EBE300"/>
	</linearGradient>
	<circle id="ovale1" clip-path="url(#masqueovale1_1_)" fill="url(#ovale1_1_)" cx="112.7" cy="72.4" r="77.5"/>
</g>
</svg>
